<?xml version="1.0" encoding="UTF-8" standalone="no"?>
<svg
   viewBox="0 0 64 64"
   fill="none"
   x="0px"
   y="0px"
   version="1.1"
   id="svg4"
   sodipodi:docname="ClearWireTraces.svg"
   width="64"
   height="64"
   inkscape:version="1.3.2 (091e20e, 2023-11-25)"
   xmlns:inkscape="http://www.inkscape.org/namespaces/inkscape"
   xmlns:sodipodi="http://sodipodi.sourceforge.net/DTD/sodipodi-0.dtd"
   xmlns="http://www.w3.org/2000/svg"
   xmlns:svg="http://www.w3.org/2000/svg">
  <defs
     id="defs4" />
  <sodipodi:namedview
     id="namedview4"
     pagecolor="#505050"
     bordercolor="#eeeeee"
     borderopacity="1"
     inkscape:showpageshadow="0"
     inkscape:pageopacity="0"
     inkscape:pagecheckerboard="0"
     inkscape:deskcolor="#505050"
     showgrid="false"
     inkscape:zoom="8"
     inkscape:cx="30.0625"
     inkscape:cy="33"
     inkscape:window-width="1366"
     inkscape:window-height="744"
     inkscape:window-x="0"
     inkscape:window-y="0"
     inkscape:window-maximized="1"
     inkscape:current-layer="svg4" />
  <path
     style="fill:none;fill-rule:evenodd;stroke:#e17b00;stroke-width:2.17185;stroke-linecap:butt;stroke-linejoin:round;stroke-miterlimit:4;stroke-dasharray:none;stroke-opacity:1"
     d="M 58.127513,39.567028 37.3791,54.016533 30.9435,53.953453 55.441121,37.80635 49.848242,37.74327 25.862548,53.795759 20.849038,53.732679 45.155684,37.711725 39.462387,37.680195 15.700631,53.480388 10.428697,53.448848 22.570461,45.532981 H 18.30419"
     id="path3394-7-5-8"
     inkscape:connector-curvature="0"
     sodipodi:nodetypes="ccccccccccccc" />
  <path
     d="m 11.168067,15.150192 c 1.106688,0 2.003852,-0.897163 2.003852,-2.003851 0,-1.106709 -0.897164,-2.003852 -2.003852,-2.003852 -1.106709,0 -2.0038527,0.897143 -2.0038527,2.003852 0,1.106688 0.8971437,2.003851 2.0038527,2.003851 z"
     fill="#000000"
     id="path1"
     style="stroke-width:2.128;fill:#0000af;fill-opacity:1" />
  <path
     d="m 8.5169504,21.824443 c 1.1067091,0 2.0038526,-0.897165 2.0038526,-2.003938 0,-1.10656 -0.8971435,-2.003725 -2.0038526,-2.003725 -1.1066887,0 -2.0038535,0.897165 -2.0038535,2.003725 0,1.106773 0.8971648,2.003938 2.0038535,2.003938 z m 7.0479426,1.290187 c 1.106709,0 2.003852,-0.897165 2.003852,-2.003937 0,-1.10656 -0.897143,-2.003725 -2.003852,-2.003725 -1.106688,0 -2.003853,0.897165 -2.003853,2.003725 0,1.106772 0.897165,2.003937 2.003853,2.003937 z"
     fill="#000000"
     id="path2"
     style="stroke-width:2.128;fill:#0000af;fill-opacity:1" />
  <path
     fill-rule="evenodd"
     clip-rule="evenodd"
     d="M 42.462941,4.696641 C 40.194705,3.521836 37.403621,4.408148 36.228965,6.6762768 l -5.131246,9.9063502 c -0.02746,0.05311 -0.05128,0.107188 -0.07128,0.161898 -2.513382,-0.08618 -5.003142,1.0241 -6.682346,2.989287 -1.978403,2.315329 -4.412324,4.842115 -6.492231,6.132321 -2.965368,1.839656 -5.416824,2.502528 -6.939153,2.737886 -0.890376,0.13768 -1.6130451,0.710964 -1.9650803,1.454274 -0.3677184,0.776508 -0.3399904,1.793904 0.3745706,2.581264 1.5534827,1.711976 4.5821377,4.51583 10.1372607,8.048948 3.847658,2.446988 7.297359,3.800396 9.153827,4.427516 1.42278,0.480504 2.94345,-0.06894 3.75975,-1.291696 1.032292,-1.545992 2.844924,-4.461138 4.401342,-8.008514 1.151462,-2.62425 2.143534,-5.328938 3.092836,-8.029158 0.800766,-2.27781 0.440496,-4.680322 -0.776934,-6.579562 L 44.437725,10.939895 C 45.619403,8.6708086 44.734581,5.8733186 42.462941,4.696641 Z M 37.073569,19.090497 41.984141,9.66201 c 0.47497,-0.9118482 0.11938,-2.0360706 -0.793532,-2.5089336 -0.911634,-0.472118 -2.03309,-0.115934 -2.505294,0.7955528 l -4.874396,9.4107178 c 0.16322,0.06925 0.325158,0.144512 0.48561,0.225888 l 1.781136,0.90308 c 0.350906,0.177858 0.6833,0.379529 0.995904,0.602182 z m 0.18386,7.778564 c -0.19706,0.560728 -0.404958,1.143586 -0.620312,1.737512 l -11.22605,-5.891156 c 0.361546,-0.403044 0.708198,-0.800554 1.036336,-1.184444 1.670904,-1.955548 4.413258,-2.586095 6.598076,-1.478322 l 1.781136,0.903122 c 2.194606,1.11252 3.23222,3.633986 2.430814,5.913288 z m -17.947255,1.347874 c 1.364963,-0.84673 2.789298,-2.084162 4.125894,-3.414162 l 0.0178,0.0096 12.208549,6.406982 c -0.46965,1.221046 -0.95228,2.415706 -1.42129,3.485026 -1.46981,3.349684 -3.190298,6.118212 -4.168752,7.583766 -0.1396,0.208756 -0.366016,0.277278 -0.573922,0.207054 -0.816514,-0.275788 -1.983084,-0.709688 -3.373518,-1.338938 0.645422,-0.680534 2.1972,-2.937092 3.094352,-4.46543 0.387734,-0.660524 0.16366,-1.499 -0.500506,-1.872854 -0.663916,-0.373712 -1.516626,-0.1413 -1.904134,0.519232 -0.72118,1.228494 -2.217616,3.582738 -3.297577,4.526506 -0.823676,-0.444564 -1.687005,-0.94592 -2.573019,-1.509628 -0.720413,-0.458158 -1.395074,-0.902484 -2.026622,-1.331916 0.328606,-0.221098 0.68894,-0.491992 1.075768,-0.823748 0.581752,-0.499016 0.639527,-1.361494 0.129042,-1.926478 -0.510486,-0.564772 -1.395926,-0.618398 -1.977679,-0.119382 -0.8562,0.73416 -1.454211,1.013568 -1.695249,1.107838 -2.202587,-1.654946 -3.678291,-3.013674 -4.633337,-4.00447 1.850274,-0.344098 4.464012,-1.159122 7.4942,-3.038998 z"
     fill="#000000"
     id="path3"
     sodipodi:nodetypes="ccccccccccccccccccccccccccccccccccccccscsscccccccccc"
     style="stroke-width:2.128;fill:#0000ca;fill-opacity:1" />
</svg>
